<?xml version="1.0" standalone="no"?>
<!DOCTYPE svg PUBLIC "-//W3C//DTD SVG 20010904//EN"
 "http://www.w3.org/TR/2001/REC-SVG-20010904/DTD/svg10.dtd">
<svg version="1.0" xmlns="http://www.w3.org/2000/svg"
 width="512.000000pt" height="512.000000pt" viewBox="0 0 512.000000 512.000000"
 preserveAspectRatio="xMidYMid meet">

<g transform="translate(0.000000,512.000000) scale(0.100000,-0.100000)"
fill="#000000" stroke="none">
<path d="M185 5095 l-25 -24 0 -2511 0 -2511 25 -24 24 -25 2351 0 2351 0 24
25 25 24 0 2511 0 2511 -25 24 -24 25 -2351 0 -2351 0 -24 -25z m4635 -2535
l0 -2420 -360 0 -360 0 -2 2106 -3 2106 -24 19 c-23 19 -61 19 -1511 19 -1450
0 -1488 0 -1511 -19 l-24 -19 -3 -2106 -2 -2106 -360 0 -360 0 0 2420 0 2420
2260 0 2260 0 0 -2420z m-2330 -365 l0 -2055 -665 0 -665 0 0 2055 0 2055 665
0 665 0 0 -2055z m1470 0 l0 -2055 -665 0 -665 0 0 2055 0 2055 665 0 665 0 0
-2055z"/>
<path d="M1057 4749 c-45 -26 -39 -96 10 -118 34 -16 47 -14 77 10 67 53 -12
151 -87 108z"/>
<path d="M1411 4736 c-29 -31 -25 -73 11 -99 46 -34 108 -3 108 54 0 63 -75
92 -119 45z"/>
<path d="M1782 4744 c-22 -15 -30 -66 -14 -90 25 -38 91 -39 117 -1 21 31 18
60 -8 85 -27 26 -64 28 -95 6z"/>
<path d="M2142 4737 c-12 -13 -22 -32 -22 -43 0 -49 59 -86 103 -63 29 16 37
28 37 62 0 60 -76 89 -118 44z"/>
<path d="M2511 4741 c-38 -38 -22 -100 29 -116 29 -9 73 16 84 48 22 61 -67
114 -113 68z"/>
<path d="M2871 4734 c-25 -32 -26 -52 -6 -81 19 -27 59 -37 88 -22 29 16 37
28 37 62 0 63 -80 90 -119 41z"/>
<path d="M3240 4740 c-29 -29 -26 -74 7 -100 32 -25 69 -20 96 12 22 27 22 49
-4 82 -25 32 -70 35 -99 6z"/>
<path d="M3601 4734 c-24 -31 -24 -34 -11 -69 21 -55 108 -53 128 3 26 74 -69
127 -117 66z"/>
<path d="M3990 4740 c-29 -29 -26 -74 6 -99 15 -12 34 -21 44 -21 10 0 29 9
44 21 50 40 21 119 -44 119 -17 0 -39 -9 -50 -20z"/>
<path d="M410 2503 c-20 -26 -21 -33 -18 -414 3 -357 4 -390 21 -406 16 -16
43 -18 244 -21 258 -4 277 0 294 57 6 23 9 164 7 402 -3 344 -4 368 -22 388
-18 20 -28 21 -262 21 l-243 0 -21 -27z m408 -405 l2 -298 -145 0 -145 0 0
293 c0 162 3 297 7 301 4 3 68 5 142 4 l136 -3 3 -297z"/>
<path d="M649 2316 c-34 -17 -49 -52 -37 -87 17 -51 68 -64 106 -29 56 52 -2
150 -69 116z"/>
<path d="M625 2000 c-40 -44 -7 -120 51 -120 55 0 87 86 46 123 -25 23 -75 21
-97 -3z"/>
</g>
</svg>
