<?xml version="1.0" standalone="no"?>
<!DOCTYPE svg PUBLIC "-//W3C//DTD SVG 20010904//EN"
 "http://www.w3.org/TR/2001/REC-SVG-20010904/DTD/svg10.dtd">
<svg version="1.0" xmlns="http://www.w3.org/2000/svg"
 width="512.000000pt" height="512.000000pt" viewBox="0 0 512.000000 512.000000"
 preserveAspectRatio="xMidYMid meet">

<g transform="translate(0.000000,512.000000) scale(0.100000,-0.100000)"
fill="#000000" stroke="none">
<path d="M2135 4753 c-41 -21 -84 -62 -103 -98 -23 -45 -19 -131 8 -188 22
-46 22 -51 7 -76 -51 -87 -40 -189 29 -257 68 -69 154 -80 246 -33 l39 20 43
-20 c72 -35 125 -37 190 -8 108 50 146 166 93 281 l-23 49 23 45 c58 115 4
254 -113 292 -47 16 -122 8 -170 -17 l-39 -20 -50 23 c-59 28 -136 31 -180 7z
m142 -157 c67 -55 98 -56 167 -5 95 69 157 -1 86 -95 -40 -53 -40 -100 0 -151
33 -42 39 -85 14 -109 -23 -24 -44 -20 -104 19 -64 41 -98 44 -137 11 -66 -54
-115 -58 -134 -9 -8 22 -5 35 26 84 42 68 44 106 10 147 -39 46 -48 80 -30
108 20 31 65 31 102 0z"/>
<path d="M890 4597 c-53 -17 -137 -106 -152 -161 -9 -34 -16 -45 -27 -41 -41
16 -102 16 -155 1 -183 -53 -252 -291 -124 -423 l32 -33 -26 -27 c-95 -102
-93 -267 4 -365 65 -64 167 -93 249 -70 l36 9 11 -41 c17 -63 63 -120 121
-147 l50 -24 1 -63 0 -64 -31 27 c-124 103 -392 148 -451 75 -23 -29 -25 -161
-3 -245 51 -194 229 -361 423 -397 l62 -12 0 -320 0 -320 -40 -98 c-22 -54
-56 -151 -74 -215 l-34 -118 -12 45 c-48 187 -120 372 -153 395 -25 18 -80 20
-109 4 -40 -21 -116 -226 -173 -464 -61 -255 -99 -542 -111 -844 l-7 -161 -74
0 c-65 0 -77 -3 -98 -25 -30 -30 -32 -64 -4 -99 l20 -26 2519 0 2519 0 20 26
c28 35 26 69 -4 99 -21 22 -33 25 -100 25 l-75 0 0 83 c-1 159 -17 318 -36
338 -23 26 -85 25 -108 0 -22 -24 -21 -20 -11 -244 l8 -177 -193 0 -193 0 7
163 c15 363 67 701 148 964 31 102 41 119 51 85 2 -9 19 -64 35 -122 17 -58
45 -172 61 -254 33 -163 45 -186 98 -186 41 0 73 30 73 69 0 144 -156 678
-216 738 -25 25 -80 31 -115 13 -46 -25 -143 -295 -194 -545 -9 -44 -19 -87
-21 -95 -3 -9 -24 20 -50 72 -58 110 -85 138 -135 138 -52 0 -79 -27 -138
-139 l-49 -95 -7 40 c-28 157 -90 375 -145 511 l-40 97 0 661 1 660 49 23 c56
26 105 86 122 148 11 40 12 41 42 33 163 -47 326 81 326 253 0 69 -20 123 -64
176 l-28 32 31 35 c44 50 61 98 61 169 0 118 -76 220 -189 253 -50 14 -112 14
-152 -2 -11 -4 -18 7 -29 42 -18 62 -97 144 -156 161 -134 39 -263 -10 -318
-121 -14 -29 -27 -60 -30 -70 -4 -14 -11 -16 -33 -10 -16 5 -53 8 -83 7 -216
-3 -328 -287 -173 -442 l25 -24 -30 -32 c-50 -52 -66 -94 -66 -171 0 -61 4
-78 30 -125 36 -64 97 -115 157 -131 37 -10 117 -9 156 2 8 3 18 -12 27 -41
18 -60 65 -115 125 -146 l49 -24 0 -219 0 -219 -63 42 c-89 59 -187 89 -298
90 -84 0 -91 -1 -116 -26 -25 -26 -27 -32 -26 -120 1 -158 57 -284 176 -394
71 -66 175 -119 265 -136 l62 -12 0 -156 0 -157 -50 -125 c-46 -114 -130 -411
-130 -458 0 -34 -15 -22 -42 34 -15 30 -41 70 -58 90 -26 30 -39 36 -70 36
-54 0 -82 -28 -139 -138 l-48 -94 -12 64 c-23 116 -70 293 -107 398 -61 176
-86 212 -149 212 -63 0 -88 -36 -149 -212 -37 -105 -84 -282 -107 -398 l-12
-64 -42 81 c-23 44 -47 86 -53 93 -6 8 -12 75 -14 165 -4 174 -11 193 -79 193
-61 0 -69 -20 -69 -182 l0 -137 -54 -103 c-31 -58 -57 -96 -60 -88 -2 8 -16
67 -30 130 -14 63 -34 145 -45 182 l-19 66 26 37 c37 51 42 142 13 211 l-22
50 22 48 c28 65 24 158 -10 208 -58 84 -167 112 -267 69 l-50 -22 -48 22 c-38
16 -63 20 -111 17 -74 -5 -120 -31 -159 -92 -33 -51 -36 -139 -5 -205 l20 -45
-22 -50 c-28 -66 -24 -158 10 -208 44 -63 84 -83 171 -83 l76 0 -26 -100 c-15
-55 -33 -133 -40 -173 -7 -39 -16 -72 -19 -72 -3 0 -26 39 -51 88 -55 107 -79
132 -132 132 -51 0 -82 -31 -140 -145 l-43 -84 -21 19 c-42 40 -124 12 -124
-41 0 -12 10 -87 21 -167 20 -140 21 -150 5 -242 -21 -120 -36 -260 -36 -327
l0 -53 -154 0 -154 0 4 98 c14 307 41 549 85 767 21 105 84 338 98 363 6 10
17 -10 35 -65 15 -45 35 -88 45 -97 41 -37 121 -6 121 48 0 31 -53 190 -91
275 -28 62 -29 69 -29 226 l0 161 62 12 c200 37 380 208 427 406 7 28 12 88
13 134 0 78 -2 87 -26 110 -23 24 -31 26 -118 25 -116 -1 -203 -27 -293 -87
l-65 -44 0 219 0 219 49 24 c68 35 105 84 135 178 4 15 10 16 31 8 15 -6 47
-10 73 -10 127 2 226 87 254 221 15 71 -7 148 -58 207 l-37 43 31 32 c118 125
77 327 -83 410 -43 22 -125 28 -181 14 -30 -8 -32 -6 -38 26 -14 73 -92 157
-166 177 -45 13 -135 11 -180 -3z m170 -164 c36 -33 47 -81 31 -138 l-10 -40
-96 0 c-76 0 -96 3 -99 15 -32 115 7 190 100 190 34 0 51 -6 74 -27z m2683 7
c35 -28 49 -80 36 -139 l-10 -46 -97 1 -97 2 -9 40 c-20 93 26 162 108 162 28
0 52 -7 69 -20z m-3076 -191 c15 -5 42 -24 59 -40 l32 -31 -33 -49 c-18 -26
-38 -64 -45 -83 -10 -31 -13 -34 -39 -26 -47 13 -90 39 -107 65 -34 52 -11
132 47 162 30 16 50 16 86 2z m746 -16 c29 -26 49 -80 42 -113 -8 -38 -54 -79
-107 -95 l-45 -13 -12 37 c-6 21 -26 58 -45 83 l-35 45 27 26 c62 59 129 70
175 30z m1940 18 c14 -5 41 -24 60 -41 l36 -31 -34 -45 c-19 -25 -40 -62 -46
-84 l-12 -38 -45 13 c-94 29 -135 108 -90 175 36 54 80 70 131 51z m726 -5
c39 -20 61 -58 61 -103 0 -60 -39 -100 -121 -123 -26 -8 -29 -5 -39 26 -6 19
-27 57 -46 84 l-35 50 28 27 c31 28 78 52 106 53 10 0 31 -7 46 -14z m-3004
-159 c58 -33 87 -88 82 -159 -11 -187 -266 -228 -333 -53 -58 154 107 294 251
212z m2674 9 c109 -57 131 -195 45 -281 -104 -104 -280 -39 -292 108 -6 80 37
153 108 180 30 11 112 7 139 -7z m-3069 -271 c7 -20 28 -56 47 -82 l34 -45
-21 -23 c-30 -32 -81 -55 -120 -55 -38 0 -99 55 -101 92 -4 68 13 97 73 127
60 29 74 27 88 -14z m697 15 c43 -19 83 -69 83 -103 0 -59 -58 -117 -118 -117
-27 0 -112 46 -126 69 -4 5 9 30 28 55 19 25 39 61 46 81 13 40 27 43 87 15z
m1997 -27 c11 -25 32 -60 47 -78 33 -37 29 -47 -35 -89 -66 -44 -139 -28 -170
38 -21 44 -20 64 4 104 19 31 86 71 120 72 9 0 23 -20 34 -47z m681 33 c91
-38 115 -128 51 -192 -24 -24 -43 -34 -66 -34 -39 0 -90 23 -120 55 l-21 23
34 48 c18 27 40 64 47 82 14 36 25 38 75 18z m-3021 -228 l46 10 10 -37 c14
-49 13 -76 -5 -117 -28 -67 -125 -82 -177 -26 -33 35 -42 78 -28 134 l12 45
48 -10 c30 -6 64 -6 94 1z m2682 -2 c52 6 53 6 59 -22 4 -16 9 -35 11 -43 7
-23 -15 -87 -38 -108 -54 -50 -147 -33 -173 31 -18 42 -19 68 -5 117 l10 37
42 -10 c23 -5 66 -6 94 -2z m-2993 -522 c62 -31 141 -105 168 -156 14 -27 19
-58 19 -114 l0 -76 -37 7 c-152 28 -295 180 -310 330 l-6 52 58 -9 c31 -5 80
-20 108 -34z m684 -329 c-15 -151 -158 -304 -309 -331 l-38 -6 0 79 c0 70 3
84 28 124 58 90 165 161 270 179 26 4 49 8 51 9 2 0 1 -24 -2 -54z m1997 12
c65 -30 129 -86 168 -146 25 -40 28 -54 28 -124 l0 -79 -37 7 c-110 19 -223
106 -273 209 -27 54 -54 159 -43 169 9 9 109 -14 157 -36z m-1700 -607 c25
-19 52 -30 71 -30 19 0 46 11 71 30 41 31 91 39 112 18 21 -21 13 -71 -18
-112 -19 -25 -30 -52 -30 -71 0 -19 11 -46 30 -71 31 -41 39 -91 18 -112 -21
-21 -71 -13 -112 18 -25 19 -52 30 -71 30 -19 0 -46 -11 -71 -30 -41 -31 -91
-39 -112 -18 -21 21 -13 71 18 112 19 25 30 52 30 71 0 19 -11 46 -30 71 -31
41 -39 91 -18 112 21 21 71 13 112 -18z m1135 -561 c43 -147 76 -308 101 -484
l21 -150 -21 -120 c-11 -65 -23 -172 -27 -237 l-6 -118 -153 0 -154 0 6 108
c15 322 46 579 95 803 38 178 88 338 99 319 4 -8 22 -63 39 -121z m926 -184
c15 -66 38 -196 51 -289 21 -140 23 -178 14 -220 -16 -73 -40 -291 -40 -358
l0 -58 -155 0 -155 0 0 38 c0 20 5 111 10 202 22 340 76 670 147 891 l36 114
33 -100 c18 -55 44 -154 59 -220z m-3187 203 c39 -129 65 -240 90 -393 19
-111 19 -129 7 -235 -8 -63 -17 -182 -20 -265 -3 -82 -8 -169 -11 -192 l-5
-43 -146 0 -146 0 7 163 c9 223 42 500 81 694 34 164 92 373 105 373 4 0 21
-46 38 -102z m1356 -15 c44 -134 116 -523 116 -623 0 -25 -7 -81 -15 -125 -8
-44 -20 -144 -26 -222 l-13 -143 -148 0 -148 0 0 68 c0 251 54 677 116 927 41
163 42 165 74 165 25 0 30 -6 44 -47z m451 -363 c20 -47 49 -131 65 -187 28
-99 28 -105 19 -235 -5 -73 -12 -177 -15 -230 l-6 -98 -150 0 -151 0 7 93 c17
216 54 411 108 567 31 87 76 185 83 178 2 -2 20 -42 40 -88z m913 -23 c67
-170 66 -169 54 -334 -7 -81 -15 -203 -18 -270 l-7 -123 -135 0 -135 0 6 114
c9 144 40 331 79 460 35 120 97 268 108 261 5 -3 27 -51 48 -108z m877 12 c18
-46 46 -126 61 -177 26 -93 26 -94 15 -250 -6 -86 -11 -192 -11 -234 l0 -78
-150 0 -150 0 0 55 c0 134 37 362 84 526 34 115 96 263 107 252 5 -5 25 -47
44 -94z m-2691 4 c20 -48 48 -127 63 -177 l26 -91 -12 -175 c-6 -96 -11 -203
-11 -237 l0 -63 -150 0 -150 0 0 50 c0 143 49 426 100 577 37 113 77 203 89
203 5 0 25 -39 45 -87z"/>
<path d="M2222 3814 c-62 -31 -106 -81 -128 -146 -15 -45 -17 -48 -42 -40
-137 38 -289 -53 -323 -192 -22 -90 12 -208 73 -250 l22 -16 -31 -32 c-117
-121 -87 -316 63 -404 51 -30 145 -43 193 -26 29 10 31 9 37 -16 18 -75 81
-149 151 -178 l33 -14 0 -203 c0 -233 4 -247 69 -247 26 0 44 7 57 21 17 19
19 41 22 228 l3 207 34 13 c47 17 119 100 135 154 12 44 13 45 43 36 86 -25
190 5 254 72 94 100 98 251 9 356 l-27 32 35 45 c46 61 60 106 53 182 -8 111
-80 199 -186 230 -50 15 -112 15 -152 -1 -10 -4 -19 9 -32 45 -38 107 -129
170 -248 170 -50 0 -77 -6 -117 -26z m199 -153 c25 -25 29 -37 29 -83 0 -96 2
-93 -107 -92 -110 2 -111 3 -112 84 -1 80 38 119 117 120 35 0 49 -6 73 -29z
m-388 -187 c18 -9 44 -28 60 -42 l27 -26 -24 -25 c-14 -14 -37 -52 -51 -83
l-26 -57 -44 16 c-52 17 -105 73 -105 109 0 61 55 123 108 124 13 0 37 -7 55
-16z m717 1 c59 -31 78 -117 37 -168 -22 -27 -122 -73 -130 -59 -2 4 -7 19
-11 34 -3 14 -22 47 -41 72 -19 26 -35 50 -35 56 0 12 58 56 90 69 36 14 57
13 90 -4z m-331 -150 c41 -21 79 -69 92 -117 32 -120 -89 -241 -209 -209 -80
22 -132 86 -132 165 0 77 34 135 95 162 40 18 119 17 154 -1z m-384 -265 c4
-17 22 -51 41 -75 19 -25 34 -49 34 -53 0 -11 -50 -57 -77 -71 -50 -26 -122
-2 -148 49 -33 65 -7 126 69 161 58 26 73 24 81 -11z m688 15 c19 -8 47 -29
62 -47 23 -27 26 -39 22 -77 -12 -109 -134 -134 -217 -46 l-23 24 27 36 c15
19 36 56 47 80 22 49 30 52 82 30z m-279 -249 c13 -47 6 -113 -14 -139 -29
-37 -81 -52 -126 -37 -60 20 -85 82 -68 167 l6 30 98 0 c91 -1 99 -3 104 -21z"/>
<path d="M4109 3147 c-95 -50 -129 -169 -80 -274 l23 -50 -23 -44 c-32 -64
-31 -142 5 -203 54 -92 165 -123 273 -76 l49 21 48 -21 c56 -25 141 -28 183
-7 38 20 89 75 102 110 19 49 13 125 -12 176 l-24 46 23 45 c27 52 31 133 10
183 -17 39 -71 92 -109 106 -45 17 -124 13 -176 -9 l-47 -21 -45 20 c-62 29
-143 28 -200 -2z m169 -157 c55 -39 96 -39 148 0 95 72 164 8 94 -88 -20 -28
-30 -54 -30 -77 0 -23 10 -49 30 -77 70 -96 1 -160 -94 -88 -51 38 -88 38
-146 0 -55 -37 -94 -39 -115 -6 -18 27 -11 52 29 105 15 20 26 48 26 66 0 18
-11 46 -26 66 -40 53 -47 78 -29 105 21 33 63 31 113 -6z"/>
</g>
</svg>
