<svg version="1.0" xmlns="http://www.w3.org/2000/svg"
 width="24.000000pt" height="24.000000pt" viewBox="0 0 24.000000 24.000000"
 preserveAspectRatio="xMidYMid meet">

<g transform="translate(0.000000,24.000000) scale(0.100000,-0.100000)"
fill="#000000" stroke="none">
<path d="M22 213 c-17 -30 -26 -189 -12 -198 6 -4 17 -2 23 4 6 6 45 11 87 11
42 0 81 -5 87 -11 36 -36 45 59 12 115 -12 20 -26 36 -32 35 -8 0 -8 -2 1 -6
33 -13 4 -23 -68 -23 -72 0 -101 10 -67 23 9 4 9 6 -1 6 -7 1 -17 -9 -22 -21
-8 -21 -9 -20 -9 9 -2 60 3 63 99 63 50 0 91 -4 93 -10 3 -6 4 -5 3 2 -2 9
-30 14 -94 16 -79 2 -92 0 -100 -15z m189 -93 c30 -17 25 -50 -8 -51 l-28 -2
28 -4 c15 -2 27 -9 27 -14 0 -5 -49 -9 -110 -9 -120 0 -157 19 -42 22 l67 2
-67 3 c-59 3 -68 6 -68 23 0 10 8 24 18 29 22 14 158 14 183 1z"/>
<path d="M108 158 c9 -9 15 -9 24 0 9 9 7 12 -12 12 -19 0 -21 -3 -12 -12z"/>
</g>
</svg>