<?xml version="1.0" standalone="no"?>
<!DOCTYPE svg PUBLIC "-//W3C//DTD SVG 20010904//EN"
 "http://www.w3.org/TR/2001/REC-SVG-20010904/DTD/svg10.dtd">
<svg version="1.0" xmlns="http://www.w3.org/2000/svg"
 width="512.000000pt" height="512.000000pt" viewBox="0 0 512.000000 512.000000"
 preserveAspectRatio="xMidYMid meet">

<g transform="translate(0.000000,512.000000) scale(0.100000,-0.100000)"
fill="#000000" stroke="none">
<path d="M115 5093 c-46 -24 -76 -54 -96 -98 -18 -38 -19 -115 -19 -1978 0
-2125 -4 -1975 58 -2040 63 -67 -37 -62 1287 -65 1128 -2 1202 -1 1235 15 60
31 72 109 23 158 l-26 25 -1188 0 -1189 0 0 1900 0 1900 1900 0 1900 0 0
-1900 0 -1900 -297 0 -297 0 -28 -27 c-30 -29 -38 -85 -17 -125 23 -43 61 -48
362 -48 319 0 360 6 414 62 68 70 63 -94 63 2043 0 1724 -2 1940 -15 1973 -20
47 -50 79 -97 103 -36 18 -90 19 -1990 19 -1761 -1 -1956 -2 -1983 -17z"/>
<path d="M4721 5093 c-25 -22 -269 -400 -277 -430 -15 -56 38 -117 102 -117
37 0 71 27 116 94 16 24 17 -72 17 -1655 0 -1583 -1 -1679 -17 -1655 -35 52
-78 90 -107 96 -59 11 -126 -61 -111 -119 7 -30 252 -407 278 -429 29 -26 91
-23 122 5 13 12 79 108 146 212 141 218 149 243 102 296 -25 28 -37 34 -72 34
-44 0 -57 -11 -117 -91 l-22 -29 0 1680 0 1680 22 -29 c60 -80 73 -91 117 -91
35 0 47 6 72 34 47 53 39 78 -101 296 -67 105 -134 200 -147 213 -31 27 -92
30 -123 5z"/>
<path d="M2015 4516 c-35 -16 -1451 -1206 -1511 -1271 -29 -31 -46 -60 -54
-94 -22 -92 2 -143 137 -296 78 -88 95 -102 142 -118 71 -23 127 -15 191 29
27 19 52 34 55 34 3 0 5 -259 5 -575 0 -546 1 -578 19 -613 22 -43 52 -72 101
-98 33 -18 77 -19 1000 -19 l965 0 40 22 c50 27 80 58 100 105 13 32 15 116
15 608 0 313 2 570 5 570 3 0 27 -15 54 -34 78 -53 172 -55 243 -5 33 24 182
197 207 241 46 80 33 172 -33 243 -64 69 -1477 1256 -1513 1271 -41 18 -129
17 -168 0z m812 -792 c389 -328 714 -602 721 -608 9 -9 -4 -32 -65 -104 -66
-79 -79 -90 -92 -79 -152 127 -413 346 -784 660 -252 213 -470 390 -485 394
-14 3 -37 2 -52 -4 -14 -5 -300 -241 -636 -524 -335 -283 -617 -520 -625 -527
-14 -10 -27 1 -92 80 -42 51 -73 95 -69 99 111 103 1450 1218 1458 1215 7 -3
331 -273 721 -602z m-259 -359 l451 -380 0 -647 1 -648 -279 0 -279 0 -4 233
c-3 252 -5 263 -65 319 -54 52 -85 58 -293 58 -208 0 -239 -6 -293 -58 -60
-56 -62 -67 -65 -319 l-4 -233 -279 0 -279 0 1 648 0 647 456 383 c250 211
461 382 467 380 7 -2 215 -174 464 -383z m-313 -1470 l0 -200 -155 0 -155 0
-3 190 c-1 104 0 195 3 202 3 11 39 13 157 11 l153 -3 0 -200z"/>
<path d="M2002 3286 c-224 -73 -295 -363 -130 -528 69 -70 127 -93 228 -93
102 0 157 22 222 87 155 155 117 414 -75 512 -68 35 -176 44 -245 22z m159
-203 c31 -18 59 -67 59 -103 0 -39 -30 -88 -65 -104 -41 -20 -68 -20 -109 -1
-60 29 -84 107 -50 164 34 58 108 78 165 44z"/>
<path d="M2925 1087 c-17 -14 -28 -36 -32 -63 -4 -36 -1 -46 24 -74 25 -28 36
-33 73 -33 37 0 48 5 73 33 25 28 28 38 24 74 -7 54 -44 86 -97 86 -26 0 -48
-8 -65 -23z"/>
<path d="M240 555 c-107 -69 -205 -137 -218 -151 -29 -33 -29 -85 1 -118 12
-14 110 -82 217 -151 160 -102 202 -125 232 -125 52 0 88 33 95 87 5 39 2 45
-28 75 -19 18 -48 43 -64 55 l-30 22 1683 0 c925 1 1682 -1 1682 -4 0 -2 -21
-19 -47 -36 -63 -43 -72 -56 -73 -102 0 -29 7 -45 29 -68 54 -54 77 -46 308
102 313 202 313 207 0 408 -230 148 -254 156 -308 102 -51 -52 -36 -119 37
-165 24 -15 44 -30 44 -32 0 -2 -753 -4 -1672 -3 -1569 0 -1671 1 -1648 17 95
63 116 128 61 183 -55 54 -80 46 -301 -96z"/>
</g>
</svg>
