<?xml version="1.0" standalone="no"?>
<!DOCTYPE svg PUBLIC "-//W3C//DTD SVG 20010904//EN"
 "http://www.w3.org/TR/2001/REC-SVG-20010904/DTD/svg10.dtd">
<svg version="1.0" xmlns="http://www.w3.org/2000/svg"
 width="512.000000pt" height="512.000000pt" viewBox="0 0 512.000000 512.000000"
 preserveAspectRatio="xMidYMid meet">

<g transform="translate(0.000000,512.000000) scale(0.100000,-0.100000)"
fill="#000000" stroke="none">
<path d="M2415 5113 c-190 -22 -325 -54 -465 -108 -351 -135 -653 -385 -741
-614 -31 -79 -31 -179 1 -246 30 -63 128 -160 208 -205 l62 -35 0 -199 0 -198
-27 -32 c-47 -55 -53 -84 -53 -243 0 -146 1 -149 30 -200 31 -55 93 -100 152
-112 30 -6 32 -9 54 -108 48 -217 158 -389 329 -518 l75 -56 0 -69 c0 -41 -7
-86 -17 -111 -15 -40 -17 -41 -52 -35 -53 9 -734 -118 -831 -155 -190 -73
-363 -232 -459 -424 -62 -124 -82 -208 -88 -371 l-6 -140 28 -22 c34 -27 65
-28 96 -3 22 18 24 28 30 148 3 70 11 147 18 169 l11 41 47 -23 c65 -33 151
-33 219 1 55 27 152 136 192 214 37 74 26 197 -24 252 -13 15 -12 17 13 28 38
15 462 93 472 86 5 -3 86 -112 179 -244 94 -131 185 -250 202 -264 17 -15 46
-29 65 -33 31 -5 52 -4 118 8 13 2 35 -16 67 -52 l49 -55 -72 -517 -72 -518
-472 0 -473 0 0 320 c0 307 -1 321 -20 340 -30 30 -83 27 -109 -6 -20 -26 -21
-38 -21 -340 l0 -314 -166 0 -166 0 -29 29 -29 29 0 217 0 216 -25 24 c-30 30
-64 32 -99 4 l-26 -20 0 -221 c0 -139 4 -235 12 -259 16 -55 73 -118 132 -145
l51 -24 1775 0 1775 0 51 24 c59 27 116 90 132 145 8 27 12 179 12 504 0 382
-3 480 -16 548 -58 306 -291 574 -577 662 -115 36 -688 141 -764 140 l-62 -1
-15 39 c-9 23 -16 69 -16 109 l0 69 58 43 c183 135 297 309 346 531 22 99 24
102 54 108 59 12 121 57 152 112 29 51 30 54 30 200 0 159 -6 188 -53 243
l-27 32 0 198 0 199 63 37 c131 76 216 183 232 289 20 135 -92 333 -278 490
-300 254 -718 403 -1112 397 -55 0 -113 -3 -130 -5z m438 -173 c318 -62 637
-236 817 -445 65 -75 98 -132 111 -190 11 -48 10 -57 -11 -100 -14 -28 -43
-63 -74 -87 l-51 -41 -6 99 c-6 112 -14 136 -60 188 -44 50 -69 62 -212 96
-319 75 -550 104 -847 104 -293 0 -487 -26 -793 -106 -99 -26 -124 -36 -161
-69 -63 -56 -79 -96 -86 -213 l-5 -99 -51 41 c-121 95 -119 197 5 352 203 253
583 444 981 494 85 10 338 -3 443 -24z m62 -549 c153 -21 410 -71 492 -96 75
-22 83 -38 83 -167 l0 -108 -119 0 c-117 0 -120 -1 -140 -26 -27 -35 -26 -57
3 -91 23 -26 30 -28 123 -33 l98 -5 -63 -42 c-109 -73 -302 -134 -517 -165
-120 -17 -512 -17 -635 1 -211 29 -402 91 -516 167 l-59 39 649 5 648 5 19 24
c25 31 24 69 -3 98 l-21 23 -664 0 -663 0 0 109 c0 150 2 152 182 196 152 37
337 70 473 84 134 14 467 4 630 -18z m-1217 -726 l52 -30 0 -67 c0 -38 -3 -68
-7 -68 -3 0 -30 8 -60 17 l-53 17 0 84 c0 46 3 82 8 80 4 -1 31 -16 60 -33z
m1792 -48 l0 -83 -53 -17 c-30 -9 -57 -17 -60 -17 -4 0 -7 30 -7 68 l0 67 53
32 c28 17 55 32 60 32 4 1 7 -36 7 -82z m-1480 -66 c225 -56 568 -76 820 -47
128 15 325 52 372 71 14 6 17 -6 20 -105 l3 -112 33 -29 c44 -39 86 -39 143 3
24 18 67 38 94 45 70 19 75 10 75 -142 0 -149 -7 -159 -110 -168 -81 -7 -96
-23 -105 -115 -27 -277 -167 -484 -417 -617 -131 -69 -217 -90 -378 -90 -155
0 -239 19 -363 81 -255 129 -404 345 -433 627 -9 92 -23 107 -104 114 -103 9
-110 19 -110 168 0 152 5 161 75 142 28 -7 70 -27 94 -45 57 -42 99 -42 143
-3 l33 29 3 112 c3 79 7 110 15 107 7 -2 50 -14 97 -26z m300 -1429 c77 -23
101 -26 250 -26 149 0 173 3 250 26 47 15 92 29 101 33 13 5 17 -4 22 -54 3
-33 17 -86 31 -117 21 -47 24 -60 14 -70 -7 -6 -104 -80 -215 -163 l-203 -151
-202 151 c-112 83 -209 157 -216 163 -10 10 -7 23 14 70 14 31 28 84 31 117 5
50 9 59 22 54 9 -4 54 -18 101 -33z m-138 -418 c123 -92 226 -170 230 -173 8
-7 -207 -101 -229 -101 -12 0 -313 413 -313 430 0 9 55 19 77 14 7 -2 113 -78
235 -170z m1064 166 c13 0 24 -4 24 -10 0 -17 -301 -430 -313 -430 -15 0 -238
93 -233 97 1 2 108 82 236 178 134 100 240 173 248 170 7 -3 25 -5 38 -5z
m425 -80 c118 -22 227 -45 242 -51 25 -11 26 -13 13 -28 -50 -55 -61 -178 -23
-252 39 -78 136 -187 191 -214 68 -34 154 -34 219 -1 l47 23 12 -36 c8 -25 13
-180 15 -529 l4 -492 -30 -30 -29 -30 -166 0 -166 0 0 314 c0 302 -1 314 -21
340 -26 33 -79 36 -109 6 -19 -19 -20 -33 -20 -340 l0 -320 -473 0 -472 0 -72
518 -72 517 49 55 c32 36 54 54 67 52 66 -12 87 -13 118 -8 19 4 48 18 65 33
17 14 103 127 192 252 171 240 187 261 198 261 4 0 103 -18 221 -40z m-2582
-166 c41 -52 25 -104 -63 -201 -43 -48 -52 -53 -89 -53 -29 0 -51 7 -69 23
l-27 22 35 52 c35 52 167 183 183 183 5 0 19 -12 30 -26z m3070 -40 c38 -36
86 -89 105 -117 l35 -52 -27 -22 c-18 -16 -40 -23 -69 -23 -37 0 -46 5 -89 53
-63 69 -84 106 -84 143 0 30 32 84 51 84 5 0 40 -30 78 -66z m-1516 -190 c34
-14 64 -28 66 -29 1 -2 -12 -22 -30 -44 l-32 -41 -77 0 -77 0 -32 41 c-18 22
-31 42 -30 44 9 7 125 54 137 55 7 0 41 -12 75 -26z m-23 -275 c0 -6 29 -220
65 -476 36 -256 65 -471 65 -479 0 -11 -33 -14 -180 -14 -147 0 -180 3 -180
14 0 8 29 223 65 479 36 256 65 470 65 476 0 6 21 11 50 11 29 0 50 -5 50 -11z"/>
<path d="M3123 810 c-17 -10 -37 -28 -42 -39 -6 -11 -11 -80 -11 -161 0 -231
-2 -230 317 -230 245 0 260 3 297 53 18 24 21 45 24 150 4 140 -6 185 -49 221
l-31 26 -236 0 c-217 0 -240 -2 -269 -20z m437 -205 l0 -75 -170 0 -170 0 0
75 0 75 170 0 170 0 0 -75z"/>
<path d="M1461 804 c-43 -36 -53 -81 -49 -221 3 -105 6 -126 24 -150 37 -50
52 -53 297 -53 318 0 317 -1 317 225 0 226 2 225 -324 225 l-234 0 -31 -26z
m439 -199 l0 -75 -170 0 -170 0 0 75 0 75 170 0 170 0 0 -75z"/>
</g>
</svg>
