<?xml version="1.0" standalone="no"?>
<!DOCTYPE svg PUBLIC "-//W3C//DTD SVG 20010904//EN"
 "http://www.w3.org/TR/2001/REC-SVG-20010904/DTD/svg10.dtd">
<svg version="1.0" xmlns="http://www.w3.org/2000/svg"
 width="512.000000pt" height="512.000000pt" viewBox="0 0 512.000000 512.000000"
 preserveAspectRatio="xMidYMid meet">

<g transform="translate(0.000000,512.000000) scale(0.100000,-0.100000)"
fill="#000000" stroke="none">
<path d="M1111 5084 l-21 -27 0 -2278 0 -2278 -256 -3 -256 -3 -24 -28 c-24
-28 -24 -32 -24 -217 0 -185 0 -189 24 -217 l24 -28 1982 0 1982 0 24 28 c24
28 24 32 24 217 0 185 0 189 -24 217 l-24 28 -256 3 -256 3 0 2278 0 2278 -21
27 -20 26 -1429 0 -1429 0 -20 -26z m2757 -2356 l2 -2228 -95 0 -95 0 0 158
c0 145 -2 160 -20 180 -30 32 -82 33 -115 1 -18 -18 -20 -35 -23 -179 l-3
-160 -960 0 -959 0 0 2055 0 2055 960 0 960 0 0 -1810 c0 -1933 -2 -1856 45
-1874 32 -12 69 -6 92 16 l23 21 0 1879 0 1879 -25 24 -24 25 -1071 0 -1071 0
-24 -25 -25 -24 0 -2111 0 -2110 -95 0 -95 0 0 2223 c0 1223 3 2227 7 2230 3
4 592 6 1307 5 l1301 -3 3 -2227z m562 -2478 l0 -90 -1870 0 -1870 0 0 90 0
90 1870 0 1870 0 0 -90z"/>
<path d="M2440 4404 c-146 -39 -276 -172 -309 -315 -6 -24 -13 -70 -16 -102
-6 -54 -8 -58 -46 -77 -25 -13 -46 -34 -59 -60 -20 -39 -21 -54 -18 -438 3
-392 3 -397 25 -428 46 -64 44 -64 543 -64 499 0 497 0 543 64 22 31 22 36 25
428 3 384 2 399 -18 438 -13 26 -34 47 -59 60 -37 19 -40 23 -46 77 -14 134
-53 224 -131 303 -105 109 -280 155 -434 114z m222 -164 c99 -37 169 -133 183
-252 l7 -58 -292 0 -292 0 7 58 c25 203 205 320 387 252z m308 -815 l0 -345
-410 0 -410 0 0 345 0 345 410 0 410 0 0 -345z"/>
<path d="M2490 3552 c-48 -23 -83 -93 -75 -146 11 -76 69 -126 145 -126 113 0
180 110 128 209 -39 75 -122 101 -198 63z"/>
<path d="M1809 2801 c-22 -17 -24 -28 -27 -118 -3 -109 7 -140 50 -161 19 -9
33 -9 54 -2 47 18 53 36 54 151 0 98 -2 107 -23 127 -29 27 -77 28 -108 3z"/>
<path d="M1809 2351 l-24 -19 -3 -782 -2 -781 29 -30 29 -29 722 0 722 0 29
29 29 29 0 767 c0 812 0 811 -45 829 -9 3 -342 6 -740 6 -697 0 -724 -1 -746
-19z m1371 -811 l0 -670 -620 0 -620 0 0 670 0 670 620 0 620 0 0 -670z"/>
</g>
</svg>
