<?xml version="1.0" standalone="no"?>
<!DOCTYPE svg PUBLIC "-//W3C//DTD SVG 20010904//EN"
 "http://www.w3.org/TR/2001/REC-SVG-20010904/DTD/svg10.dtd">
<svg version="1.0" xmlns="http://www.w3.org/2000/svg"
 width="512.000000pt" height="512.000000pt" viewBox="0 0 512.000000 512.000000"
 preserveAspectRatio="xMidYMid meet">

<g transform="translate(0.000000,512.000000) scale(0.100000,-0.100000)"
fill="#000000" stroke="none">
<path d="M2800 4707 c-49 -16 -133 -102 -148 -153 -17 -57 -17 -571 0 -628 13
-45 105 -146 132 -146 14 0 16 -20 16 -145 0 -142 1 -147 25 -170 41 -42 67
-34 222 70 79 52 147 95 152 95 5 0 13 -14 16 -32 10 -44 99 -130 151 -146 25
-7 106 -12 205 -12 l164 0 240 -160 c257 -172 276 -180 320 -135 24 23 25 28
25 170 0 125 2 145 16 145 27 0 119 101 132 146 16 56 17 571 0 626 -6 22 -31
62 -55 88 -64 71 -99 80 -315 80 l-178 0 0 56 c0 81 -18 129 -67 184 -72 81
-69 80 -577 79 -291 -1 -453 -5 -476 -12z m935 -172 c21 -20 25 -34 25 -80 l0
-55 -176 0 c-214 0 -241 -7 -309 -75 -69 -68 -75 -95 -75 -313 l0 -182 -120
-80 -120 -80 0 100 c0 94 -2 103 -25 125 -15 16 -36 25 -55 25 -19 0 -40 9
-55 25 l-25 24 0 271 0 271 25 24 24 25 431 0 431 0 24 -25z m25 -430 c0 -131
-1 -137 -25 -160 -24 -25 -27 -25 -200 -25 l-175 0 0 135 c0 131 1 137 25 160
24 25 27 25 200 25 l175 0 0 -135z m535 110 l25 -24 0 -271 0 -271 -25 -24
c-15 -16 -36 -25 -55 -25 -19 0 -40 -9 -55 -25 -23 -22 -25 -31 -25 -125 l0
-100 -187 125 -188 125 -188 0 c-186 0 -188 0 -212 25 -20 19 -25 34 -25 73 0
36 4 52 16 56 9 3 89 6 178 6 199 0 236 10 299 80 57 64 67 101 67 264 l0 136
175 0 c173 0 176 0 200 -25z"/>
<path d="M480 4467 c-49 -16 -133 -102 -148 -153 -17 -57 -17 -571 0 -628 23
-78 135 -166 212 -166 14 0 16 -17 16 -135 0 -131 1 -137 25 -160 44 -45 63
-37 320 135 l240 160 206 0 c246 0 277 7 342 80 24 26 49 66 55 88 17 54 17
570 0 624 -6 22 -31 62 -55 88 -73 82 -60 80 -657 79 -349 -1 -533 -5 -556
-12z m1095 -172 l25 -24 0 -271 0 -271 -25 -24 -24 -25 -228 0 -228 0 -188
-125 -187 -125 0 100 c0 94 -2 103 -25 125 -21 22 -33 25 -95 25 -62 0 -74 3
-95 25 l-25 24 0 271 0 271 25 24 24 25 511 0 511 0 24 -25z"/>
<path d="M640 4000 l0 -80 80 0 80 0 0 80 0 80 -80 0 -80 0 0 -80z"/>
<path d="M960 4000 l0 -80 80 0 80 0 0 80 0 80 -80 0 -80 0 0 -80z"/>
<path d="M1280 4000 l0 -80 80 0 80 0 0 80 0 80 -80 0 -80 0 0 -80z"/>
<path d="M2460 3184 c-192 -70 -273 -277 -179 -455 36 -67 68 -98 143 -137 43
-22 64 -26 136 -27 79 0 90 3 150 36 231 127 222 456 -15 568 -65 31 -172 38
-235 15z m163 -158 c104 -43 128 -175 47 -256 -66 -66 -156 -67 -221 -1 -124
123 13 325 174 257z"/>
<path d="M380 3024 c-192 -70 -273 -277 -179 -455 36 -67 68 -98 143 -137 43
-22 64 -26 136 -27 79 0 90 3 150 36 231 127 222 456 -15 568 -65 31 -172 38
-235 15z m163 -158 c104 -43 128 -175 47 -256 -66 -66 -156 -67 -221 -1 -124
123 13 325 174 257z"/>
<path d="M4564 3031 c-48 -12 -133 -62 -160 -94 -14 -17 -37 -53 -52 -81 -22
-43 -26 -64 -26 -136 -1 -70 4 -94 24 -135 31 -64 91 -124 155 -155 71 -35
197 -35 270 0 64 31 124 91 155 155 35 73 35 199 0 270 -32 64 -92 124 -155
154 -54 26 -156 36 -211 22z m139 -165 c104 -43 128 -175 47 -256 -66 -66
-156 -67 -221 -1 -124 123 13 325 174 257z"/>
<path d="M2229 2405 c-154 -78 -207 -122 -228 -189 -6 -17 -22 -114 -36 -216
-14 -102 -28 -197 -31 -212 l-6 -28 -114 0 c-102 0 -114 2 -114 18 0 9 14 96
30 192 16 96 30 185 30 198 0 33 -43 72 -80 72 -62 0 -73 -24 -109 -245 -18
-110 -35 -208 -37 -217 -5 -15 -18 -18 -90 -18 l-84 0 0 95 c0 88 -2 98 -25
120 -24 25 -27 25 -189 25 l-165 0 -178 107 c-98 59 -200 124 -228 145 -84 64
-163 81 -249 56 -55 -16 -138 -99 -154 -154 -9 -30 -12 -181 -12 -553 l0 -512
25 -24 c13 -14 31 -25 40 -25 13 0 15 -34 15 -280 l0 -280 -40 0 -40 0 0 -80
0 -80 2400 0 2400 0 0 80 0 80 -40 0 -40 0 0 360 c0 318 2 360 15 360 9 0 27
11 40 25 l25 24 0 432 c0 310 -3 443 -12 473 -16 55 -99 138 -154 154 -86 25
-165 8 -249 -56 -27 -21 -130 -86 -228 -145 l-178 -107 -165 0 c-162 0 -165 0
-189 -25 -23 -22 -25 -32 -25 -120 l0 -95 -84 0 c-72 0 -85 3 -90 18 -2 9 -19
107 -37 217 -36 221 -47 245 -109 245 -37 0 -80 -39 -80 -72 0 -13 14 -102 30
-198 16 -96 30 -183 30 -192 0 -16 -12 -18 -114 -18 l-114 0 -6 28 c-3 15 -17
110 -31 212 -14 102 -30 199 -36 216 -21 67 -73 109 -229 189 l-149 75 -183
-1 -183 0 -146 -74z m595 -147 c68 -34 128 -70 135 -80 6 -10 22 -96 36 -191
13 -94 27 -184 29 -199 l6 -28 -75 0 -75 0 0 175 c0 173 0 176 -25 200 l-24
25 -271 0 -271 0 -24 -25 c-25 -24 -25 -27 -25 -200 l0 -175 -75 0 -74 0 5 28
c2 15 16 105 29 199 14 95 30 181 36 191 7 10 66 46 133 80 l121 61 142 0 143
1 124 -62z m-2381 -109 c12 -6 33 -21 47 -34 14 -12 120 -79 237 -149 l211
-126 131 0 131 0 0 -40 0 -40 -150 0 -150 0 -160 80 c-88 44 -171 80 -185 80
-14 0 -37 -11 -50 -25 l-25 -24 0 -229 c0 -167 3 -233 13 -245 6 -9 99 -70
206 -134 l194 -118 93 -310 c51 -171 95 -320 99 -332 5 -22 3 -23 -69 -23
l-75 0 -20 68 c-11 37 -45 155 -75 262 -31 107 -62 200 -69 207 -7 7 -112 46
-232 86 l-220 74 -3 467 -2 467 24 24 c27 27 64 32 99 14z m4332 -14 l25 -24
0 -389 0 -390 -267 -114 c-215 -92 -271 -120 -283 -141 -14 -25 -10 -46 56
-312 39 -157 69 -285 65 -285 -7 1 -345 610 -340 615 2 1 132 83 289 180 157
97 293 186 303 197 15 18 17 44 17 210 0 187 0 189 -25 213 -13 14 -36 25 -50
25 -14 0 -97 -36 -185 -80 l-160 -80 -150 0 -150 0 0 40 0 40 131 0 131 0 211
126 c117 70 223 137 237 149 58 52 107 59 145 20z m-2055 -255 l0 -120 -160 0
-160 0 0 120 0 120 160 0 160 0 0 -120z m-1730 -280 l130 0 -1 -322 0 -323
-43 141 c-24 78 -46 146 -50 152 -3 6 -92 61 -196 123 l-190 113 0 113 0 113
110 -55 110 -55 130 0z m3490 37 l0 -74 -235 -146 c-129 -81 -237 -147 -240
-147 -3 0 -5 74 -5 165 l0 165 133 1 132 0 105 54 c58 30 106 54 108 54 1 1 2
-32 2 -72z m-640 -117 l0 -80 -1280 0 -1280 0 0 80 0 80 1280 0 1280 0 0 -80z
m-2400 -640 l0 -400 -80 0 -80 0 0 400 0 400 80 0 80 0 0 -400z m643 355 c9
-63 30 -100 102 -175 l61 -65 28 -235 c15 -129 30 -245 33 -257 l5 -23 -356 0
-356 0 0 400 0 400 239 0 238 0 6 -45z m797 24 c0 -12 -33 -54 -80 -104 -44
-46 -80 -90 -80 -98 0 -8 -16 -138 -35 -288 -19 -151 -35 -277 -35 -281 0 -5
-40 -8 -89 -8 l-89 0 -5 33 c-4 17 -21 151 -38 297 l-33 265 -78 82 c-124 130
-138 123 242 123 317 0 320 0 320 -21z m640 -379 l0 -400 -356 0 -356 0 5 33
c4 17 18 133 33 257 l27 225 62 65 c72 75 93 112 102 175 l6 45 238 0 239 0 0
-400z m320 0 l0 -400 -80 0 -80 0 0 400 0 400 80 0 80 0 0 -400z m880 -80 l0
-320 -89 0 -89 0 -61 245 c-33 135 -61 251 -61 258 0 11 266 135 293 137 4 0
7 -144 7 -320z m-4185 137 l120 -42 52 -180 c29 -99 55 -192 58 -208 l7 -27
-186 0 -186 0 0 250 c0 138 3 250 8 249 4 0 61 -19 127 -42z m3560 -296 c47
-85 85 -155 85 -157 0 -2 -40 -4 -90 -4 l-90 0 0 162 c0 89 2 159 5 157 2 -3
43 -74 90 -158z"/>
</g>
</svg>
