<?xml version="1.0" standalone="no"?>
<!DOCTYPE svg PUBLIC "-//W3C//DTD SVG 20010904//EN"
 "http://www.w3.org/TR/2001/REC-SVG-20010904/DTD/svg10.dtd">
<svg version="1.0" xmlns="http://www.w3.org/2000/svg"
 width="512.000000pt" height="512.000000pt" viewBox="0 0 512.000000 512.000000"
 preserveAspectRatio="xMidYMid meet">

<g transform="translate(0.000000,512.000000) scale(0.100000,-0.100000)"
fill="#000000" stroke="none">
<path d="M3436 4558 c-228 -30 -396 -257 -358 -484 6 -37 23 -92 38 -123 33
-67 123 -158 182 -185 23 -11 41 -23 40 -27 -2 -4 -26 -25 -55 -48 -29 -23
-113 -119 -192 -219 l-140 -179 -138 -5 c-156 -5 -195 -17 -257 -76 -52 -50
-78 -110 -78 -184 0 -78 38 -158 95 -199 69 -50 120 -59 326 -59 185 0 186 0
249 30 34 16 62 28 62 27 7 -31 26 -334 22 -338 -4 -3 -68 -30 -142 -60 -161
-65 -206 -95 -243 -169 l-28 -55 3 -397 3 -398 -87 0 -88 0 0 311 0 311 -29
29 -29 29 -446 0 -446 0 0 319 0 320 -26 20 c-26 21 -36 21 -568 21 -531 0
-543 0 -564 -20 -29 -27 -37 -63 -20 -96 25 -54 26 -54 535 -54 l472 0 3 -316
3 -316 28 -24 28 -24 445 0 444 0 0 -315 0 -316 25 -24 24 -25 441 0 440 0 0
-305 c0 -346 2 -356 68 -374 23 -7 222 -11 540 -11 554 0 557 0 581 59 11 25
11 37 0 62 -17 41 -61 59 -147 59 l-69 0 4 68 c5 64 0 80 -99 377 l-103 310
-3 436 -3 437 66 -5 c113 -10 205 43 251 142 24 49 24 54 24 401 0 389 -3 410
-63 472 -52 54 -447 354 -512 388 -33 18 -80 38 -105 45 -25 7 -47 14 -48 15
-2 1 14 27 37 56 52 70 79 131 89 207 39 284 -196 518 -482 479z m158 -182
c49 -20 112 -81 135 -130 25 -51 28 -150 7 -201 -35 -82 -112 -144 -199 -159
-62 -11 -141 10 -196 54 -145 115 -123 342 41 424 60 30 156 35 212 12z m171
-732 c33 -8 78 -25 100 -37 60 -34 463 -345 475 -367 15 -28 13 -645 -2 -673
-16 -31 -39 -46 -70 -47 -84 -1 -88 15 -88 358 0 262 -2 292 -17 310 -10 11
-72 66 -138 121 -99 83 -126 101 -153 101 -45 0 -67 -13 -82 -50 -20 -48 0
-77 116 -174 l104 -88 0 -251 c0 -240 -2 -255 -24 -320 -44 -123 -104 -196
-201 -244 -22 -11 -165 -62 -318 -112 -205 -69 -281 -98 -292 -114 -12 -18
-15 -69 -15 -305 l0 -284 -29 -29 c-38 -37 -82 -39 -116 -4 l-25 24 0 359 c0
328 2 362 18 381 9 11 96 52 192 91 98 39 183 79 193 91 23 29 23 31 -24 615
l-40 509 43 38 c115 104 251 139 393 101z m-571 -570 l5 -61 -79 -37 -79 -37
-170 3 c-163 3 -170 4 -195 27 -33 31 -35 85 -4 118 20 22 28 23 167 24 80 1
157 4 171 8 15 4 53 42 95 95 l70 88 7 -84 c3 -45 9 -111 12 -144z m924 -1928
c56 -170 102 -322 102 -338 0 -68 -100 -106 -148 -56 -13 14 -60 142 -124 333
l-103 310 -3 362 -3 362 38 20 c21 10 58 35 83 55 l45 36 6 -388 5 -387 102
-309z m-340 -90 c56 -171 102 -313 102 -318 0 -4 -67 -8 -150 -8 l-150 0 0
309 c0 170 -3 317 -6 326 -13 32 -59 45 -163 45 l-100 0 10 32 c5 18 9 139 9
268 l0 235 168 56 167 55 5 -345 5 -346 103 -309z"/>
</g>
</svg>
