 <svg
                style="width: 2.5em"
                xmlns="http://www.w3.org/2000/svg"
                version="1.0"
                width="900.000000pt"
                height="900.000000pt"
                viewBox="0 0 1024.000000 1024.000000"
                preserveAspectRatio="xMidYMid meet"
              >
                <g
                  transform="translate(0.000000,1024.000000) scale(0.100000,-0.100000)"
                  fill="#FFFF"
                  stroke="none"
                >
                  <path
                    d="M4365 9361 c-152 -28 -293 -72 -574 -180 -541 -209 -1015 -354 -1341 -412 -108 -18 -177 -22 -500 -28 l-375 -6 -52 -29 c-59 -33 -107 -94 -123 -157 -7 -30 -10 -232 -8 -644 3 -598 3 -600 25 -641 29 -54 96 -111 147 -125 22 -6 127 -13 233 -15 228 -6 286 -18 454 -95 151 -69 212 -93 317 -123 180 -51 252 -60 487 -61 299 0 377 18 710 160 248 106 991 401 1055 419 97 27 121 29 385 30 255 2 262 2 334 29 172 61 282 182 316 346 30 139 -25 268 -130 310 -23 9 -192 11 -670 8 l-640 -3 -302 -67 c-167 -37 -320 -67 -340 -67 -46 0 -100 26 -126 61 -44 60 -27 161 33 197 17 11 133 45 258 75 125 31 286 71 357 89 l130 33 640 0 c593 0 644 -1 700 -18 172 -53 319 -184 410 -365 14 -28 25 -59 25 -71 0 -28 154 -142 480 -352 367 -238 765 -472 912 -538 239 -106 487 -35 591 169 49 97 60 164 41 260 -28 147 -67 197 -290 366 -86 65 -219 166 -295 224 -76 58 -270 205 -431 327 -161 123 -367 279 -458 349 -259 197 -249 193 -905 339 -1001 222 -978 217 -1195 221 -147 3 -205 0 -285 -15z"
                  />
                  <path
                    d="M5043 6858 c-35 -19 -161 -123 -502 -414 -20 -17 -115 -98 -211 -180 -96 -81 -177 -151 -180 -154 -3 -3 -95 -82 -205 -175 -347 -294 -369 -315 -384 -371 -20 -75 12 -156 77 -196 31 -19 54 -23 147 -27 67 -2 113 -8 117 -15 4 -6 8 -236 8 -512 l0 -501 23 -33 c12 -18 35 -43 50 -54 28 -20 41 -21 423 -24 l394 -3 0 416 0 416 25 24 24 25 289 0 289 0 24 -26 24 -26 3 -414 3 -415 397 3 c441 3 428 1 472 73 19 31 20 49 20 426 0 217 3 451 7 521 l6 126 113 4 c95 2 117 6 141 24 50 37 73 81 73 141 0 102 41 61 -665 662 -314 268 -370 316 -525 446 -84 72 -176 150 -203 174 -61 53 -105 72 -177 78 -44 3 -63 0 -97 -19z"
                  />
                  <path
                    d="M6940 3838 c-223 -23 -327 -63 -740 -284 -196 -105 -282 -142 -414 -181 l-91 -27 -630 -5 -630 -6 -64 -27 c-134 -58 -219 -151 -261 -287 -71 -229 71 -455 315 -500 37 -7 257 -11 606 -11 540 0 548 0 660 24 694 148 653 140 700 125 71 -24 128 -106 129 -182 0 -91 -60 -147 -197 -186 -69 -19 -598 -158 -663 -175 -14 -3 -303 -6 -644 -6 -675 0 -694 2 -835 59 -98 40 -151 73 -222 139 -136 125 -236 312 -255 476 -6 52 -11 60 -53 95 -162 135 -1122 756 -1244 805 -165 66 -333 51 -475 -42 -66 -43 -104 -88 -149 -180 -32 -64 -37 -85 -41 -161 -7 -147 28 -255 116 -352 26 -29 173 -147 327 -263 154 -115 350 -264 435 -331 85 -66 167 -129 181 -140 15 -11 166 -128 335 -261 431 -336 447 -347 527 -387 80 -38 230 -83 412 -122 66 -14 226 -49 355 -76 129 -28 262 -57 295 -64 623 -137 677 -146 860 -144 279 2 400 32 915 226 803 302 1114 401 1351 429 30 3 58 9 64 12 5 4 174 9 375 12 l365 5 60 28 c73 34 109 67 143 132 l27 50 0 620 0 620 -23 47 c-28 57 -105 129 -158 147 -26 9 -127 16 -309 20 -312 8 -319 10 -489 110 -172 102 -336 163 -532 200 -120 23 -318 32 -434 19z"
                  />
                </g>
              </svg>